<?xml version="1.0" encoding="UTF-8" standalone="no"?>
<!DOCTYPE svg PUBLIC "-//W3C//DTD SVG 1.1//EN"
 "http://www.w3.org/Graphics/SVG/1.1/DTD/svg11.dtd">
<!-- Generated by graphviz version 2.40.1 (0)
 -->
<!-- Title: %3 Pages: 1 -->
<svg width="100%" height="100%"
 viewBox="0.00 0.00 842.69 326.00" xmlns="http://www.w3.org/2000/svg" xmlns:xlink="http://www.w3.org/1999/xlink">
<g id="graph0" class="graph" transform="scale(1 1) rotate(0) translate(4 322)">
<title>%3</title>
<polygon fill="#ffffff" stroke="transparent" points="-4,4 -4,-322 838.6946,-322 838.6946,4 -4,4"/>
<g id="clust1" class="cluster">
<title>cluster_u</title>
<polygon fill="none" stroke="#000000" stroke-dasharray="1,5" points="0,-32 0,-269 107,-269 107,-32 0,-32"/>
<text text-anchor="middle" x="53.5" y="-253.8" font-family="Times,serif" font-size="14.00" fill="#000000">user clients</text>
</g>
<g id="clust2" class="cluster">
<title>cluster_m</title>
<polygon fill="none" stroke="#000000" points="180,-20 180,-288 453.0946,-288 453.0946,-20 180,-20"/>
<text text-anchor="middle" x="316.5473" y="-272.8" font-family="Times,serif" font-size="14.00" fill="#000000">bento</text>
<text text-anchor="middle" x="316.5473" y="-257.8" font-family="Times,serif" font-size="14.00" fill="#000000"> batching service</text>
</g>
<g id="clust3" class="cluster">
<title>cluster_b</title>
<polygon fill="none" stroke="#000000" points="514.6946,-208 514.6946,-310 826.6946,-310 826.6946,-208 514.6946,-208"/>
<text text-anchor="middle" x="670.6946" y="-294.8" font-family="Times,serif" font-size="14.00" fill="#000000">bento </text>
<text text-anchor="middle" x="670.6946" y="-279.8" font-family="Times,serif" font-size="14.00" fill="#000000">model service</text>
</g>
<g id="clust4" class="cluster">
<title>cluster_b2</title>
<polygon fill="none" stroke="#000000" points="514.6946,-108 514.6946,-200 826.6946,-200 826.6946,-108 514.6946,-108"/>
<text text-anchor="middle" x="670.6946" y="-184.8" font-family="Times,serif" font-size="14.00" fill="#000000">bento </text>
<text text-anchor="middle" x="670.6946" y="-169.8" font-family="Times,serif" font-size="14.00" fill="#000000">model service</text>
</g>
<g id="clust5" class="cluster">
<title>cluster_b3</title>
<polygon fill="none" stroke="#000000" points="514.6946,-8 514.6946,-100 826.6946,-100 826.6946,-8 514.6946,-8"/>
<text text-anchor="middle" x="670.6946" y="-84.8" font-family="Times,serif" font-size="14.00" fill="#000000">bento </text>
<text text-anchor="middle" x="670.6946" y="-69.8" font-family="Times,serif" font-size="14.00" fill="#000000">model service</text>
</g>
<!-- user1 -->
<g id="node1" class="node">
<title>user1</title>
<polygon fill="none" stroke="#000000" points="80,-238 26,-238 26,-202 80,-202 80,-238"/>
<text text-anchor="middle" x="53" y="-216.3" font-family="Times,serif" font-size="14.00" fill="#000000">user1</text>
</g>
<!-- marshal_inbound -->
<g id="node5" class="node">
<title>marshal_inbound</title>
<polygon fill="none" stroke="#000000" points="257,-242 188,-242 188,-28 257,-28 257,-242"/>
<text text-anchor="middle" x="222.5" y="-130.8" font-family="Times,serif" font-size="14.00" fill="#000000">marshal</text>
<text text-anchor="middle" x="222.5" y="-115.8" font-family="Times,serif" font-size="14.00" fill="#000000">inbound</text>
</g>
<!-- user1&#45;&gt;marshal_inbound -->
<g id="edge4" class="edge">
<title>user1&#45;&gt;marshal_inbound</title>
<path fill="none" stroke="#000000" d="M80.2331,-220C80.2331,-220 177.7004,-220 177.7004,-220"/>
<polygon fill="#000000" stroke="#000000" points="177.7005,-223.5001 187.7004,-220 177.7004,-216.5001 177.7005,-223.5001"/>
<text text-anchor="middle" x="143.5" y="-223.8" font-family="Times,serif" font-size="14.00" fill="#000000">http</text>
<text text-anchor="middle" x="143.5" y="-208.8" font-family="Times,serif" font-size="14.00" fill="#000000">request</text>
</g>
<!-- user2 -->
<g id="node2" class="node">
<title>user2</title>
<polygon fill="none" stroke="#000000" points="80,-184 26,-184 26,-148 80,-148 80,-184"/>
<text text-anchor="middle" x="53" y="-162.3" font-family="Times,serif" font-size="14.00" fill="#000000">user2</text>
</g>
<!-- user2&#45;&gt;marshal_inbound -->
<g id="edge5" class="edge">
<title>user2&#45;&gt;marshal_inbound</title>
<path fill="none" stroke="#000000" d="M80.2331,-166C80.2331,-166 177.7004,-166 177.7004,-166"/>
<polygon fill="#000000" stroke="#000000" points="177.7005,-169.5001 187.7004,-166 177.7004,-162.5001 177.7005,-169.5001"/>
</g>
<!-- user3 -->
<g id="node3" class="node">
<title>user3</title>
<polygon fill="none" stroke="#000000" points="80,-130 26,-130 26,-94 80,-94 80,-130"/>
<text text-anchor="middle" x="53" y="-108.3" font-family="Times,serif" font-size="14.00" fill="#000000">user3</text>
</g>
<!-- user3&#45;&gt;marshal_inbound -->
<g id="edge6" class="edge">
<title>user3&#45;&gt;marshal_inbound</title>
<path fill="none" stroke="#000000" d="M80.2331,-112C80.2331,-112 177.7004,-112 177.7004,-112"/>
<polygon fill="#000000" stroke="#000000" points="177.7005,-115.5001 187.7004,-112 177.7004,-108.5001 177.7005,-115.5001"/>
</g>
<!-- user4 -->
<g id="node4" class="node">
<title>user4</title>
<polygon fill="none" stroke="#000000" points="80,-76 26,-76 26,-40 80,-40 80,-76"/>
<text text-anchor="middle" x="53" y="-54.3" font-family="Times,serif" font-size="14.00" fill="#000000">user4</text>
</g>
<!-- user4&#45;&gt;marshal_inbound -->
<g id="edge7" class="edge">
<title>user4&#45;&gt;marshal_inbound</title>
<path fill="none" stroke="#000000" d="M80.2331,-58C80.2331,-58 177.7004,-58 177.7004,-58"/>
<polygon fill="#000000" stroke="#000000" points="177.7005,-61.5001 187.7004,-58 177.7004,-54.5001 177.7005,-61.5001"/>
</g>
<!-- cork -->
<g id="node6" class="node">
<title>cork</title>
<ellipse fill="none" stroke="#000000" cx="414.5473" cy="-135" rx="30.5947" ry="30.5947"/>
<text text-anchor="middle" x="414.5473" y="-131.3" font-family="Times,serif" font-size="14.00" fill="#000000">cork</text>
</g>
<!-- marshal_inbound&#45;&gt;cork -->
<g id="edge8" class="edge">
<title>marshal_inbound&#45;&gt;cork</title>
<path fill="none" stroke="#000000" d="M257.2783,-135C257.2783,-131 373.8297,-131 373.8297,-135"/>
<path fill="none" stroke="#ffffff" d="M257.2783,-135C257.2783,-133 373.8297,-133 373.8297,-135"/>
<path fill="none" stroke="#000000" d="M257.2783,-135C257.2783,-135 373.8297,-135 373.8297,-135"/>
<path fill="none" stroke="#ffffff" d="M257.2783,-135C257.2783,-137 373.8297,-137 373.8297,-135"/>
<path fill="none" stroke="#000000" d="M257.2783,-135C257.2783,-139 373.8297,-139 373.8297,-135"/>
<polygon fill="#000000" stroke="#000000" points="373.8297,-138.5001 383.8297,-135 373.8296,-131.5001 373.8297,-138.5001"/>
<text text-anchor="middle" x="320.5" y="-153.8" font-family="Times,serif" font-size="14.00" fill="#000000">packed</text>
<text text-anchor="middle" x="320.5" y="-138.8" font-family="Times,serif" font-size="14.00" fill="#000000">request</text>
</g>
<!-- lb -->
<g id="node13" class="node">
<title>lb</title>
<ellipse fill="#000000" stroke="#000000" cx="483.8946" cy="-135" rx="1.8" ry="1.8"/>
</g>
<!-- cork&#45;&gt;lb -->
<g id="edge9" class="edge">
<title>cork&#45;&gt;lb</title>
<path fill="none" stroke="#000000" d="M445.1659,-135C445.1659,-135 471.9124,-135 471.9124,-135"/>
<polygon fill="#000000" stroke="#000000" points="471.9125,-138.5001 481.9124,-135 471.9124,-131.5001 471.9125,-138.5001"/>
</g>
<!-- extract -->
<g id="node7" class="node">
<title>extract</title>
<polygon fill="none" stroke="#000000" points="591.6946,-254 522.6946,-254 522.6946,-216 591.6946,-216 591.6946,-254"/>
<text text-anchor="middle" x="557.1946" y="-238.8" font-family="Times,serif" font-size="14.00" fill="#000000">input</text>
<text text-anchor="middle" x="557.1946" y="-223.8" font-family="Times,serif" font-size="14.00" fill="#000000">adapter</text>
</g>
<!-- user_customized_handler -->
<g id="node8" class="node">
<title>user_customized_handler</title>
<polygon fill="none" stroke="#000000" points="818.6946,-254 711.6946,-254 711.6946,-216 818.6946,-216 818.6946,-254"/>
<text text-anchor="middle" x="765.1946" y="-238.8" font-family="Times,serif" font-size="14.00" fill="#000000">user defined</text>
<text text-anchor="middle" x="765.1946" y="-223.8" font-family="Times,serif" font-size="14.00" fill="#000000"> handler</text>
</g>
<!-- extract&#45;&gt;user_customized_handler -->
<g id="edge1" class="edge">
<title>extract&#45;&gt;user_customized_handler</title>
<path fill="none" stroke="#000000" d="M592.0091,-235C592.0091,-231 701.4921,-231 701.4921,-235"/>
<path fill="none" stroke="#ffffff" d="M592.0091,-235C592.0091,-233 701.4921,-233 701.4921,-235"/>
<path fill="none" stroke="#000000" d="M592.0091,-235C592.0091,-235 701.4921,-235 701.4921,-235"/>
<path fill="none" stroke="#ffffff" d="M592.0091,-235C592.0091,-237 701.4921,-237 701.4921,-235"/>
<path fill="none" stroke="#000000" d="M592.0091,-235C592.0091,-239 701.4921,-239 701.4921,-235"/>
<polygon fill="#000000" stroke="#000000" points="701.4921,-238.5001 711.4921,-235 701.4921,-231.5001 701.4921,-238.5001"/>
<text text-anchor="middle" x="651.6946" y="-252.8" font-family="Times,serif" font-size="14.00" fill="#000000">merged</text>
<text text-anchor="middle" x="651.6946" y="-237.8" font-family="Times,serif" font-size="14.00" fill="#000000">data</text>
</g>
<!-- extract2 -->
<g id="node9" class="node">
<title>extract2</title>
<polygon fill="none" stroke="#000000" points="591.6946,-154 522.6946,-154 522.6946,-116 591.6946,-116 591.6946,-154"/>
<text text-anchor="middle" x="557.1946" y="-138.8" font-family="Times,serif" font-size="14.00" fill="#000000">input</text>
<text text-anchor="middle" x="557.1946" y="-123.8" font-family="Times,serif" font-size="14.00" fill="#000000">adapter</text>
</g>
<!-- user_customized_handler2 -->
<g id="node10" class="node">
<title>user_customized_handler2</title>
<polygon fill="none" stroke="#000000" points="818.6946,-154 711.6946,-154 711.6946,-116 818.6946,-116 818.6946,-154"/>
<text text-anchor="middle" x="765.1946" y="-138.8" font-family="Times,serif" font-size="14.00" fill="#000000">user defined</text>
<text text-anchor="middle" x="765.1946" y="-123.8" font-family="Times,serif" font-size="14.00" fill="#000000"> handler</text>
</g>
<!-- extract2&#45;&gt;user_customized_handler2 -->
<g id="edge2" class="edge">
<title>extract2&#45;&gt;user_customized_handler2</title>
<path fill="none" stroke="#000000" d="M592.0091,-135C592.0091,-131 701.4921,-131 701.4921,-135"/>
<path fill="none" stroke="#ffffff" d="M592.0091,-135C592.0091,-133 701.4921,-133 701.4921,-135"/>
<path fill="none" stroke="#000000" d="M592.0091,-135C592.0091,-135 701.4921,-135 701.4921,-135"/>
<path fill="none" stroke="#ffffff" d="M592.0091,-135C592.0091,-137 701.4921,-137 701.4921,-135"/>
<path fill="none" stroke="#000000" d="M592.0091,-135C592.0091,-139 701.4921,-139 701.4921,-135"/>
<polygon fill="#000000" stroke="#000000" points="701.4921,-138.5001 711.4921,-135 701.4921,-131.5001 701.4921,-138.5001"/>
</g>
<!-- extract3 -->
<g id="node11" class="node">
<title>extract3</title>
<polygon fill="none" stroke="#000000" points="591.6946,-54 522.6946,-54 522.6946,-16 591.6946,-16 591.6946,-54"/>
<text text-anchor="middle" x="557.1946" y="-38.8" font-family="Times,serif" font-size="14.00" fill="#000000">input</text>
<text text-anchor="middle" x="557.1946" y="-23.8" font-family="Times,serif" font-size="14.00" fill="#000000">adapter</text>
</g>
<!-- user_customized_handler3 -->
<g id="node12" class="node">
<title>user_customized_handler3</title>
<polygon fill="none" stroke="#000000" points="818.6946,-54 711.6946,-54 711.6946,-16 818.6946,-16 818.6946,-54"/>
<text text-anchor="middle" x="765.1946" y="-38.8" font-family="Times,serif" font-size="14.00" fill="#000000">user defined</text>
<text text-anchor="middle" x="765.1946" y="-23.8" font-family="Times,serif" font-size="14.00" fill="#000000"> handler</text>
</g>
<!-- extract3&#45;&gt;user_customized_handler3 -->
<g id="edge3" class="edge">
<title>extract3&#45;&gt;user_customized_handler3</title>
<path fill="none" stroke="#000000" d="M592.0091,-35C592.0091,-31 701.4921,-31 701.4921,-35"/>
<path fill="none" stroke="#ffffff" d="M592.0091,-35C592.0091,-33 701.4921,-33 701.4921,-35"/>
<path fill="none" stroke="#000000" d="M592.0091,-35C592.0091,-35 701.4921,-35 701.4921,-35"/>
<path fill="none" stroke="#ffffff" d="M592.0091,-35C592.0091,-37 701.4921,-37 701.4921,-35"/>
<path fill="none" stroke="#000000" d="M592.0091,-35C592.0091,-39 701.4921,-39 701.4921,-35"/>
<polygon fill="#000000" stroke="#000000" points="701.4921,-38.5001 711.4921,-35 701.4921,-31.5001 701.4921,-38.5001"/>
</g>
<!-- lb&#45;&gt;extract -->
<g id="edge10" class="edge">
<title>lb&#45;&gt;extract</title>
<path fill="none" stroke="#000000" d="M484.6946,-136.6315C484.6946,-149.1138 484.6946,-229 484.6946,-229 484.6946,-229 512.6432,-229 512.6432,-229"/>
<polygon fill="#000000" stroke="#000000" points="512.6433,-232.5001 522.6432,-229 512.6432,-225.5001 512.6433,-232.5001"/>
</g>
<!-- lb&#45;&gt;extract2 -->
<g id="edge11" class="edge">
<title>lb&#45;&gt;extract2</title>
<path fill="none" stroke="#000000" d="M485.7065,-135C485.7065,-135 512.5837,-135 512.5837,-135"/>
<polygon fill="#000000" stroke="#000000" points="512.5838,-138.5001 522.5837,-135 512.5837,-131.5001 512.5838,-138.5001"/>
</g>
<!-- lb&#45;&gt;extract3 -->
<g id="edge12" class="edge">
<title>lb&#45;&gt;extract3</title>
<path fill="none" stroke="#000000" d="M484.6946,-133.3685C484.6946,-120.8862 484.6946,-41 484.6946,-41 484.6946,-41 512.6432,-41 512.6432,-41"/>
<polygon fill="#000000" stroke="#000000" points="512.6432,-44.4999 522.6432,-41 512.6433,-37.4999 512.6432,-44.4999"/>
</g>
</g>
</svg>
