<?xml version="1.0" encoding="UTF-8" standalone="no"?>
<!DOCTYPE svg PUBLIC "-//W3C//DTD SVG 1.1//EN"
 "http://www.w3.org/Graphics/SVG/1.1/DTD/svg11.dtd">
<!-- Generated by graphviz version 2.40.1 (0)
 -->
<!-- Title: time Pages: 1 -->
<svg width="100%" height="100%"
 viewBox="0.00 0.00 747.00 328.50" xmlns="http://www.w3.org/2000/svg" xmlns:xlink="http://www.w3.org/1999/xlink">
<g id="graph0" class="graph" transform="scale(1 1) rotate(0) translate(4 324.5)">
<title>time</title>
<polygon fill="#ffffff" stroke="transparent" points="-4,4 -4,-324.5 743,-324.5 743,4 -4,4"/>
<!-- L1 -->
<g id="node1" class="node">
<title>L1</title>
<text text-anchor="middle" x="49.5" y="-305.3" font-family="Times,serif" font-size="14.00" fill="#000000">http client</text>
</g>
<!-- s000 -->
<g id="node2" class="node">
<title>s000</title>
<ellipse fill="#000000" stroke="#000000" cx="49.5" cy="-262" rx="0" ry="0"/>
</g>
<!-- L1&#45;&gt;s000 -->
<g id="edge1" class="edge">
<title>L1&#45;&gt;s000</title>
<path fill="none" stroke="#000000" d="M49.5,-297.3418C49.5,-285.6836 49.5,-274.0254 49.5,-262.3672"/>
</g>
<!-- s001 -->
<g id="node3" class="node">
<title>s001</title>
<ellipse fill="#000000" stroke="#000000" cx="49.5" cy="-225" rx="0" ry="0"/>
</g>
<!-- s000&#45;&gt;s001 -->
<g id="edge2" class="edge">
<title>s000&#45;&gt;s001</title>
<path fill="none" stroke="#000000" d="M49.5,-261.7132C49.5,-249.5718 49.5,-237.4304 49.5,-225.2891"/>
</g>
<!-- s100 -->
<g id="node11" class="node">
<title>s100</title>
<ellipse fill="#000000" stroke="#000000" cx="309.5" cy="-262" rx="0" ry="0"/>
</g>
<!-- s000&#45;&gt;s100 -->
<g id="edge25" class="edge">
<title>s000&#45;&gt;s100</title>
<path fill="none" stroke="#000000" stroke-dasharray="5,2" d="M49.5474,-262C53.0659,-262 251.6051,-262 299.2866,-262"/>
<polygon fill="#000000" stroke="#000000" points="299.4534,-265.5001 309.4534,-262 299.4533,-258.5001 299.4534,-265.5001"/>
<text text-anchor="middle" x="170" y="-265.8" font-family="Times,serif" font-size="14.00" fill="#000000">request 1</text>
</g>
<!-- s002 -->
<g id="node4" class="node">
<title>s002</title>
<ellipse fill="#000000" stroke="#000000" cx="49.5" cy="-187" rx="0" ry="0"/>
</g>
<!-- s001&#45;&gt;s002 -->
<g id="edge3" class="edge">
<title>s001&#45;&gt;s002</title>
<path fill="none" stroke="#000000" d="M49.5,-224.7054C49.5,-212.2359 49.5,-199.7664 49.5,-187.2969"/>
</g>
<!-- s101 -->
<g id="node12" class="node">
<title>s101</title>
<ellipse fill="#000000" stroke="#000000" cx="309.5" cy="-225" rx="0" ry="0"/>
</g>
<!-- s001&#45;&gt;s101 -->
<g id="edge26" class="edge">
<title>s001&#45;&gt;s101</title>
<path fill="none" stroke="#000000" stroke-dasharray="5,2" d="M49.5474,-225C53.0659,-225 251.6051,-225 299.2866,-225"/>
<polygon fill="#000000" stroke="#000000" points="299.4534,-228.5001 309.4534,-225 299.4533,-221.5001 299.4534,-228.5001"/>
<text text-anchor="middle" x="170" y="-228.8" font-family="Times,serif" font-size="14.00" fill="#000000">request 2</text>
</g>
<!-- s003 -->
<g id="node5" class="node">
<title>s003</title>
<ellipse fill="#000000" stroke="#000000" cx="49.5" cy="-149" rx="0" ry="0"/>
</g>
<!-- s002&#45;&gt;s003 -->
<g id="edge4" class="edge">
<title>s002&#45;&gt;s003</title>
<path fill="none" stroke="#000000" d="M49.5,-186.7054C49.5,-174.2359 49.5,-161.7664 49.5,-149.2969"/>
</g>
<!-- s102 -->
<g id="node13" class="node">
<title>s102</title>
<ellipse fill="#000000" stroke="#000000" cx="309.5" cy="-186" rx="0" ry="0"/>
</g>
<!-- s002&#45;&gt;s102 -->
<g id="edge27" class="edge">
<title>s002&#45;&gt;s102</title>
<path fill="none" stroke="#000000" stroke-dasharray="5,2" d="M49.5474,-186.9998C53.0659,-186.9863 251.6051,-186.2227 299.2866,-186.0393"/>
<polygon fill="#000000" stroke="#000000" points="299.4669,-189.5387 309.4534,-186.0002 299.44,-182.5388 299.4669,-189.5387"/>
<text text-anchor="middle" x="170" y="-189.8" font-family="Times,serif" font-size="14.00" fill="#000000">request 3</text>
</g>
<!-- s004 -->
<g id="node6" class="node">
<title>s004</title>
<ellipse fill="#000000" stroke="#000000" cx="49.5" cy="-111" rx="0" ry="0"/>
</g>
<!-- s003&#45;&gt;s004 -->
<g id="edge5" class="edge">
<title>s003&#45;&gt;s004</title>
<path fill="none" stroke="#000000" d="M49.5,-148.7054C49.5,-136.2359 49.5,-123.7664 49.5,-111.2969"/>
</g>
<!-- s103 -->
<g id="node14" class="node">
<title>s103</title>
<ellipse fill="#000000" stroke="#000000" cx="309.5" cy="-149" rx="0" ry="0"/>
</g>
<!-- s003&#45;&gt;s103 -->
<g id="edge28" class="edge">
<title>s003&#45;&gt;s103</title>
<path fill="none" stroke="#000000" stroke-dasharray="5,2" d="M49.5474,-149C53.0659,-149 251.6051,-149 299.2866,-149"/>
<polygon fill="#000000" stroke="#000000" points="299.4534,-152.5001 309.4534,-149 299.4533,-145.5001 299.4534,-152.5001"/>
<text text-anchor="middle" x="170" y="-152.8" font-family="Times,serif" font-size="14.00" fill="#000000">request 4</text>
</g>
<!-- s005 -->
<g id="node7" class="node">
<title>s005</title>
<ellipse fill="#000000" stroke="#000000" cx="49.5" cy="-73" rx="0" ry="0"/>
</g>
<!-- s004&#45;&gt;s005 -->
<g id="edge6" class="edge">
<title>s004&#45;&gt;s005</title>
<path fill="none" stroke="#000000" d="M49.5,-110.7054C49.5,-98.2359 49.5,-85.7664 49.5,-73.2969"/>
</g>
<!-- s006 -->
<g id="node8" class="node">
<title>s006</title>
<ellipse fill="#000000" stroke="#000000" cx="49.5" cy="-36" rx="0" ry="0"/>
</g>
<!-- s005&#45;&gt;s006 -->
<g id="edge7" class="edge">
<title>s005&#45;&gt;s006</title>
<path fill="none" stroke="#000000" d="M49.5,-72.7132C49.5,-60.5718 49.5,-48.4304 49.5,-36.2891"/>
</g>
<!-- s105 -->
<g id="node16" class="node">
<title>s105</title>
<ellipse fill="#000000" stroke="#000000" cx="309.5" cy="-74" rx="0" ry="0"/>
</g>
<!-- s005&#45;&gt;s105 -->
<g id="edge29" class="edge">
<title>s005&#45;&gt;s105</title>
<path fill="none" stroke="#000000" stroke-dasharray="5,2" d="M49.5474,-73.0002C53.0659,-73.0137 251.6051,-73.7773 299.2866,-73.9607"/>
<polygon fill="#000000" stroke="#000000" points="299.44,-77.4612 309.4534,-73.9998 299.4669,-70.4613 299.44,-77.4612"/>
<text text-anchor="middle" x="170" y="-77.8" font-family="Times,serif" font-size="14.00" fill="#000000">request 5</text>
</g>
<!-- s007 -->
<g id="node9" class="node">
<title>s007</title>
<ellipse fill="#000000" stroke="#000000" cx="49.5" cy="0" rx="0" ry="0"/>
</g>
<!-- s006&#45;&gt;s007 -->
<g id="edge8" class="edge">
<title>s006&#45;&gt;s007</title>
<path fill="none" stroke="#000000" d="M49.5,-35.7209C49.5,-23.9077 49.5,-12.0945 49.5,-.2813"/>
</g>
<!-- s106 -->
<g id="node17" class="node">
<title>s106</title>
<ellipse fill="#000000" stroke="#000000" cx="309.5" cy="-38" rx="0" ry="0"/>
</g>
<!-- s006&#45;&gt;s106 -->
<g id="edge30" class="edge">
<title>s006&#45;&gt;s106</title>
<path fill="none" stroke="#000000" stroke-dasharray="5,2" d="M49.5474,-36.0004C53.0659,-36.0274 251.6051,-37.5547 299.2866,-37.9214"/>
<polygon fill="#000000" stroke="#000000" points="299.4267,-41.4225 309.4534,-37.9996 299.4806,-34.4227 299.4267,-41.4225"/>
<text text-anchor="middle" x="170" y="-41.8" font-family="Times,serif" font-size="14.00" fill="#000000">request 6</text>
</g>
<!-- L2 -->
<g id="node10" class="node">
<title>L2</title>
<text text-anchor="middle" x="309.5" y="-305.3" font-family="Times,serif" font-size="14.00" fill="#000000">batching service</text>
</g>
<!-- L2&#45;&gt;s100 -->
<g id="edge9" class="edge">
<title>L2&#45;&gt;s100</title>
<path fill="none" stroke="#000000" d="M309.5,-297.3418C309.5,-285.6836 309.5,-274.0254 309.5,-262.3672"/>
</g>
<!-- s100&#45;&gt;s101 -->
<g id="edge10" class="edge">
<title>s100&#45;&gt;s101</title>
<path fill="none" stroke="#000000" d="M309.5,-261.7132C309.5,-249.5718 309.5,-237.4304 309.5,-225.2891"/>
</g>
<!-- s101&#45;&gt;s102 -->
<g id="edge11" class="edge">
<title>s101&#45;&gt;s102</title>
<path fill="none" stroke="#000000" d="M309.5,-224.6977C309.5,-211.9 309.5,-199.1024 309.5,-186.3047"/>
</g>
<!-- s102&#45;&gt;s103 -->
<g id="edge12" class="edge">
<title>s102&#45;&gt;s103</title>
<path fill="none" stroke="#000000" d="M309.5,-185.7132C309.5,-173.5718 309.5,-161.4304 309.5,-149.2891"/>
</g>
<!-- s202 -->
<g id="node22" class="node">
<title>s202</title>
<ellipse fill="#000000" stroke="#000000" cx="659.5" cy="-185" rx="0" ry="0"/>
</g>
<!-- s102&#45;&gt;s202 -->
<g id="edge31" class="edge">
<title>s102&#45;&gt;s202</title>
<path fill="none" stroke="#000000" stroke-dasharray="5,2" d="M309.5638,-185.9998C314.3941,-185.986 592.2641,-185.1921 649.3254,-185.0291"/>
<polygon fill="#000000" stroke="#000000" points="649.4473,-188.5288 659.4372,-185.0002 649.4272,-181.5289 649.4473,-188.5288"/>
<text text-anchor="middle" x="479" y="-188.8" font-family="Times,serif" font-size="14.00" fill="#000000">merged_request{1,2,3}</text>
</g>
<!-- s104 -->
<g id="node15" class="node">
<title>s104</title>
<ellipse fill="#000000" stroke="#000000" cx="309.5" cy="-111" rx="0" ry="0"/>
</g>
<!-- s103&#45;&gt;s104 -->
<g id="edge13" class="edge">
<title>s103&#45;&gt;s104</title>
<path fill="none" stroke="#000000" d="M309.5,-148.7054C309.5,-136.2359 309.5,-123.7664 309.5,-111.2969"/>
</g>
<!-- s104&#45;&gt;s004 -->
<g id="edge34" class="edge">
<title>s104&#45;&gt;s004</title>
<path fill="none" stroke="#000000" stroke-dasharray="5,2" d="M309.4534,-115C305.9621,-115 107.426,-115 59.7234,-115"/>
<path fill="none" stroke="#ffffff" stroke-dasharray="5,2" d="M309.4534,-113C305.9621,-113 107.426,-113 59.7234,-113"/>
<path fill="none" stroke="#000000" stroke-dasharray="5,2" d="M309.4534,-111C305.9621,-111 107.426,-111 59.7234,-111"/>
<path fill="none" stroke="#ffffff" stroke-dasharray="5,2" d="M309.4534,-109C305.9621,-109 107.426,-109 59.7234,-109"/>
<path fill="none" stroke="#000000" stroke-dasharray="5,2" d="M309.4534,-107C305.9621,-107 107.426,-107 59.7234,-107"/>
<polygon fill="#000000" stroke="#000000" points="59.5474,-107.5001 49.5474,-111 59.5473,-114.5001 59.5474,-107.5001"/>
<text text-anchor="middle" x="170" y="-114.8" font-family="Times,serif" font-size="14.00" fill="#000000">response 1,2,3</text>
</g>
<!-- s104&#45;&gt;s105 -->
<g id="edge14" class="edge">
<title>s104&#45;&gt;s105</title>
<path fill="none" stroke="#000000" d="M309.5,-110.7132C309.5,-98.5718 309.5,-86.4304 309.5,-74.2891"/>
</g>
<!-- s105&#45;&gt;s106 -->
<g id="edge15" class="edge">
<title>s105&#45;&gt;s106</title>
<path fill="none" stroke="#000000" d="M309.5,-73.7209C309.5,-61.9077 309.5,-50.0945 309.5,-38.2813"/>
</g>
<!-- s107 -->
<g id="node18" class="node">
<title>s107</title>
<ellipse fill="#000000" stroke="#000000" cx="309.5" cy="-2" rx="0" ry="0"/>
</g>
<!-- s106&#45;&gt;s107 -->
<g id="edge16" class="edge">
<title>s106&#45;&gt;s107</title>
<path fill="none" stroke="#000000" d="M309.5,-37.7209C309.5,-25.9077 309.5,-14.0945 309.5,-2.2813"/>
</g>
<!-- s206 -->
<g id="node26" class="node">
<title>s206</title>
<ellipse fill="#000000" stroke="#000000" cx="659.5" cy="-39" rx="0" ry="0"/>
</g>
<!-- s106&#45;&gt;s206 -->
<g id="edge33" class="edge">
<title>s106&#45;&gt;s206</title>
<path fill="none" stroke="#000000" stroke-dasharray="5,2" d="M309.5638,-38.0002C314.3941,-38.014 592.2641,-38.8079 649.3254,-38.9709"/>
<polygon fill="#000000" stroke="#000000" points="649.4272,-42.4711 659.4372,-38.9998 649.4473,-35.4712 649.4272,-42.4711"/>
<text text-anchor="middle" x="479" y="-42.8" font-family="Times,serif" font-size="14.00" fill="#000000">merged_request{4,5,6}</text>
</g>
<!-- L3 -->
<g id="node19" class="node">
<title>L3</title>
<text text-anchor="middle" x="659.5" y="-300.3" font-family="Times,serif" font-size="14.00" fill="#000000">bento model service</text>
</g>
<!-- s200 -->
<g id="node20" class="node">
<title>s200</title>
<ellipse fill="#000000" stroke="#000000" cx="659.5" cy="-257" rx="0" ry="0"/>
</g>
<!-- L3&#45;&gt;s200 -->
<g id="edge17" class="edge">
<title>L3&#45;&gt;s200</title>
<path fill="none" stroke="#000000" d="M659.5,-292.3418C659.5,-280.6836 659.5,-269.0254 659.5,-257.3672"/>
</g>
<!-- s201 -->
<g id="node21" class="node">
<title>s201</title>
<ellipse fill="#000000" stroke="#000000" cx="659.5" cy="-221" rx="0" ry="0"/>
</g>
<!-- s200&#45;&gt;s201 -->
<g id="edge18" class="edge">
<title>s200&#45;&gt;s201</title>
<path fill="none" stroke="#000000" d="M659.5,-256.7209C659.5,-244.9077 659.5,-233.0945 659.5,-221.2813"/>
</g>
<!-- s201&#45;&gt;s202 -->
<g id="edge19" class="edge">
<title>s201&#45;&gt;s202</title>
<path fill="none" stroke="#000000" d="M659.5,-220.7209C659.5,-208.9077 659.5,-197.0945 659.5,-185.2813"/>
</g>
<!-- s203 -->
<g id="node23" class="node">
<title>s203</title>
<ellipse fill="#000000" stroke="#000000" cx="659.5" cy="-148" rx="0" ry="0"/>
</g>
<!-- s202&#45;&gt;s203 -->
<g id="edge20" class="edge">
<title>s202&#45;&gt;s203</title>
<path fill="none" stroke="#000000" d="M659.5,-184.7132C659.5,-172.5718 659.5,-160.4304 659.5,-148.2891"/>
</g>
<!-- s204 -->
<g id="node24" class="node">
<title>s204</title>
<ellipse fill="#000000" stroke="#000000" cx="659.5" cy="-111" rx="0" ry="0"/>
</g>
<!-- s203&#45;&gt;s204 -->
<g id="edge21" class="edge">
<title>s203&#45;&gt;s204</title>
<path fill="none" stroke="#000000" d="M659.5,-147.7132C659.5,-135.5718 659.5,-123.4304 659.5,-111.2891"/>
</g>
<!-- s204&#45;&gt;s104 -->
<g id="edge32" class="edge">
<title>s204&#45;&gt;s104</title>
<path fill="none" stroke="#000000" stroke-dasharray="5,2" d="M659.4372,-111C654.6443,-111 376.7779,-111 319.6864,-111"/>
<polygon fill="#000000" stroke="#000000" points="319.5638,-107.5001 309.5638,-111 319.5637,-114.5001 319.5638,-107.5001"/>
<text text-anchor="middle" x="479" y="-114.8" font-family="Times,serif" font-size="14.00" fill="#000000">merged_response{1,2,3}</text>
</g>
<!-- s205 -->
<g id="node25" class="node">
<title>s205</title>
<ellipse fill="#000000" stroke="#000000" cx="659.5" cy="-75" rx="0" ry="0"/>
</g>
<!-- s204&#45;&gt;s205 -->
<g id="edge22" class="edge">
<title>s204&#45;&gt;s205</title>
<path fill="none" stroke="#000000" d="M659.5,-110.7209C659.5,-98.9077 659.5,-87.0945 659.5,-75.2813"/>
</g>
<!-- s205&#45;&gt;s206 -->
<g id="edge23" class="edge">
<title>s205&#45;&gt;s206</title>
<path fill="none" stroke="#000000" d="M659.5,-74.7209C659.5,-62.9077 659.5,-51.0945 659.5,-39.2813"/>
</g>
<!-- s207 -->
<g id="node27" class="node">
<title>s207</title>
<ellipse fill="#000000" stroke="#000000" cx="659.5" cy="-3" rx="0" ry="0"/>
</g>
<!-- s206&#45;&gt;s207 -->
<g id="edge24" class="edge">
<title>s206&#45;&gt;s207</title>
<path fill="none" stroke="#000000" d="M659.5,-38.7209C659.5,-26.9077 659.5,-15.0945 659.5,-3.2813"/>
</g>
</g>
</svg>
