<svg xmlns="http://www.w3.org/2000/svg" viewBox="0 0 116.5 133.2"><defs><style>.cls-1{fill:#303e45;}.cls-2{fill:#00b1d4;}.cls-3{fill:#ffb700;}.cls-4{fill:#e60c96;}</style></defs><g id="Layer_2" data-name="Layer 2"><g id="logo"><g id="Rectangle_1" data-name="Rectangle 1"><path class="cls-1" d="M0,33.28V99.84L58.3,133.2V66.64Zm24.3,69.34L9.72,94.28V50L24.3,58.3Zm24.29,13.9L34,108.19V91.64L48.59,100Zm0-27.66L34,80.53V63.86l14.57,8.33Z"/></g><g id="Rectangle_1_copy" data-name="Rectangle 1 copy"><polygon class="cls-2" points="19.74 22.11 10.02 27.67 68.14 60.91 68.14 127.48 77.86 121.92 77.86 55.35 19.74 22.11"/></g><g id="Rectangle_1_copy_2" data-name="Rectangle 1 copy 2"><polygon class="cls-3" points="39.17 10.99 29.45 16.55 87.35 49.67 87.35 116.49 97.07 110.93 97.07 44.11 39.17 10.99"/></g><g id="Rectangle_1_copy_3" data-name="Rectangle 1 copy 3"><polygon class="cls-4" points="58.38 0 48.66 5.56 106.78 38.81 106.78 105.37 116.5 99.81 116.5 33.25 58.38 0"/></g></g></g></svg>